USFL
nRows=221
nColumns=2
inDegrees=yes
endheader
time	med_gas_r	
3.68726	 37.609653	
3.74976	 37.639898	
3.81226	 37.678089	
3.87475	 37.640263	
3.93725	 37.570565	
3.99974	 37.605689	
4.06224	 37.573316	
4.12474	 37.673473	
4.18723	 37.710996	
4.24973	 37.744025	
4.31222	 37.708746	
4.37472	 37.729495	
4.43722	 37.751680	
4.49971	 37.746851	
4.56221	 37.710831	
4.6247	 37.760767	
4.6872	 37.747251	
4.7497	 37.725921	
4.81219	 37.700432	
4.87469	 37.655407	
4.93718	 37.639189	
4.99968	 37.689501	
5.06218	 37.692234	
5.12467	 37.730689	
5.18717	 37.717274	
5.24966	 37.659718	
5.31216	 37.679963	
5.37466	 37.665445	
5.43715	 37.665445	
5.49965	 37.622445	
5.56214	 37.656901	
5.62464	 37.636371	
5.68714	 37.609846	
5.74963	 37.620061	
5.81213	 37.629490	
5.87462	 37.626634	
5.93712	 37.621967	
5.99962	 37.625802	
6.06211	 37.625174	
6.12461	 37.656203	
6.1871	 37.622876	
6.2496	 37.654680	
6.3121	 37.663058	
6.37459	 37.640935	
6.43709	 37.641625	
6.49958	 37.599706	
6.56208	 37.502526	
6.62458	 37.422310	
6.68707	 32.742489	
6.74957	 32.774562	
6.81206	 28.633331	
6.87456	 28.429866	
6.93706	 26.801377	
6.99955	 26.750081	
7.06205	 26.743094	
7.12454	 26.663005	
7.18704	 26.647951	
7.24954	 26.682680	
7.31203	 26.650234	
7.37453	 26.601068	
7.43702	 26.550579	
7.49952	 26.524547	
7.56202	 26.515864	
7.62451	 26.556860	
7.68701	 26.377843	
7.7495	 26.339863	
7.812	 26.412102	
7.8745	 26.531556	
7.93699	 26.454620	
7.99949	 26.474919	
8.06198	 26.469960	
8.12448	 26.454146	
8.18698	 26.508844	
8.24947	 26.589087	
8.31197	 26.547620	
8.37446	 26.525819	
8.43696	 26.548471	
8.49946	 26.527798	
8.56195	 26.557441	
8.62445	 26.565053	
8.68694	 26.581362	
8.74944	 26.567227	
8.81194	 26.520524	
8.87443	 26.498283	
8.93693	 26.482455	
8.99942	 26.468035	
9.06192	 26.475319	
9.12442	 26.458703	
9.18691	 26.403587	
9.24941	 26.377944	
9.3119	 26.386063	
9.3744	 26.324593	
9.4369	 26.321365	
9.49939	 26.326529	
9.56189	 26.321808	
9.62438	 26.347956	
9.68688	 26.279640	
9.74938	 26.253965	
9.81187	 26.275557	
9.87437	 26.330883	
9.93686	 26.364811	
9.99936	 26.359411	
10.0619	 26.380107	
10.1244	 26.387033	
10.1868	 26.366023	
10.2493	 26.377982	
10.3118	 26.356703	
10.3743	 26.408581	
10.4368	 26.449927	
10.4993	 26.540123	
10.5618	 26.515617	
10.6243	 26.509795	
10.6868	 26.503875	
10.7493	 26.534187	
10.8118	 26.575944	
10.8743	 26.551558	
10.9368	 26.510960	
10.9993	 26.495669	
11.0618	 26.443632	
11.1243	 26.396509	
11.1868	 26.400179	
11.2493	 26.403563	
11.3118	 26.407141	
11.3743	 26.355509	
11.4368	 26.294238	
11.4993	 26.290217	
11.5618	 26.276115	
11.6243	 26.257733	
11.6868	 26.267237	
11.7492	 26.274543	
11.8117	 26.359898	
11.8742	 26.356760	
11.9367	 26.327266	
11.9992	 26.343589	
12.0617	 26.354687	
12.1242	 26.372348	
12.1867	 26.376962	
12.2492	 26.387083	
12.3117	 26.398047	
12.3742	 26.388458	
12.4367	 26.336758	
12.4992	 26.369785	
12.5617	 26.497328	
12.6242	 26.568128	
12.6867	 26.596830	
12.7492	 26.563493	
12.8117	 26.456398	
12.8742	 26.516736	
12.9367	 26.549559	
12.9992	 26.572192	
13.0617	 26.595939	
13.1242	 26.627872	
13.1867	 25.095779	
13.2492	 25.075391	
13.3116	 24.995480	
13.3741	 24.980086	
13.4366	 25.033065	
13.4991	 25.093830	
13.5616	 25.126929	
13.6241	 25.170239	
13.6866	 25.191788	
13.7491	 25.162524	
13.8116	 25.166744	
13.8741	 25.153356	
13.9366	 26.391966	
13.9991	 26.397264	
14.0616	 29.003309	
14.1241	 29.020273	
14.1866	 29.074830	
14.2491	 29.122176	
14.3116	 29.120451	
14.3741	 29.121186	
14.4366	 29.148262	
14.4991	 29.174914	
14.5616	 31.038667	
14.6241	 38.111958	
14.6866	 38.056385	
14.7491	 38.150499	
14.8116	 38.141075	
14.874	 38.152966	
14.9365	 38.259102	
14.999	 38.330667	
15.0615	 38.295386	
15.124	 38.435797	
15.1865	 40.932105	
15.249	 40.938344	
15.3115	 41.055002	
15.374	 41.107453	
15.4365	 41.136543	
15.499	 41.280359	
15.5615	 41.333117	
15.624	 41.256685	
15.6865	 41.356185	
15.749	 41.431779	
15.8115	 41.401296	
15.874	 41.485408	
15.9365	 41.480019	
15.999	 41.426018	
16.0615	 41.534625	
16.124	 41.671336	
16.1865	 41.616511	
16.249	 41.790453	
16.3115	 42.084598	
16.374	 42.100756	
16.4364	 42.341230	
16.4989	 42.526937	
16.5614	 42.548685	
16.6239	 42.654413	
16.6864	 42.843820	
16.7489	 42.758696	
16.8114	 42.977648	
16.8739	 43.174301	
16.9364	 43.176369	
16.9989	 43.359491	
17.0614	 43.495220	
17.1239	 43.476839	
17.1864	 43.562580	
17.2489	 43.532564	
17.3114	 43.549568	
17.3739	 43.626789	
17.4364	 43.676640	
